<svg width="8" height="14" viewBox="0 0 8 14" fill="none" xmlns="http://www.w3.org/2000/svg">
<path d="M4 0.603996C1.7904 0.603996 0 2.3872 0 4.596C0 8.4152 4 13.396 4 13.396C4 13.396 8 8.4144 8 4.596C8 2.388 6.2096 0.603996 4 0.603996ZM4 6.8048C3.42713 6.8048 2.87773 6.57723 2.47265 6.17215C2.06757 5.76707 1.84 5.21766 1.84 4.6448C1.84 4.07193 2.06757 3.52252 2.47265 3.11745C2.87773 2.71237 3.42713 2.4848 4 2.4848C4.57287 2.4848 5.12227 2.71237 5.52735 3.11745C5.93243 3.52252 6.16 4.07193 6.16 4.6448C6.16 5.21766 5.93243 5.76707 5.52735 6.17215C5.12227 6.57723 4.57287 6.8048 4 6.8048Z" fill="#0560FA"/>
</svg>
