<svg width="300" height="300" viewBox="0 0 300 300" fill="none" xmlns="http://www.w3.org/2000/svg">
<path d="M300 150C300 232.843 232.843 300 150 300C67.1573 300 0 232.843 0 150C0 67.1573 67.1573 0 150 0C232.843 0 300 67.1573 300 150ZM35.0685 150C35.0685 213.475 86.5251 264.931 150 264.931C213.475 264.931 264.931 213.475 264.931 150C264.931 86.5251 213.475 35.0685 150 35.0685C86.5251 35.0685 35.0685 86.5251 35.0685 150Z" fill="url(#paint0_angular_1_1144)"/>
<circle cx="149.5" cy="282.5" r="17.5" fill="#FE9821"/>
<defs>
<radialGradient id="paint0_angular_1_1144" cx="0" cy="0" r="1" gradientUnits="userSpaceOnUse" gradientTransform="translate(150 150) rotate(90) scale(150)">
<stop stop-color="#FF9416"/>
<stop offset="1" stop-color="#D9D9D9" stop-opacity="0"/>
</radialGradient>
</defs>
</svg>
