<svg width="30" height="28" viewBox="0 0 30 28" fill="none" xmlns="http://www.w3.org/2000/svg">
<path d="M4.09983 25.3905L5.66274 19.919C5.70685 19.7648 5.70443 19.601 5.6558 19.4482C5.60716 19.2953 5.51448 19.1602 5.38938 19.0599L1.72901 16.1317L2.83143 11.7237L5.05906 14.5086C5.13543 14.6037 5.23216 14.6805 5.34213 14.7333C5.45209 14.7861 5.57249 14.8136 5.69448 14.8137H9.76246V13.1865H6.085L3.07551 9.42363C2.9807 9.30547 2.85478 9.21614 2.71194 9.16568C2.56909 9.11522 2.415 9.10565 2.26701 9.13804C2.11902 9.17043 1.98301 9.24349 1.8743 9.349C1.7656 9.45451 1.68851 9.58828 1.65172 9.73524L0.0245228 16.244C-0.0134262 16.395 -0.00722473 16.5537 0.0423898 16.7012C0.0920044 16.8488 0.182945 16.9789 0.3044 17.0763L3.94931 19.9922L2.53447 24.9438L4.09983 25.3905ZM4.47408 8.30493C3.91088 8.30493 3.36033 8.13792 2.89205 7.82503C2.42376 7.51213 2.05878 7.0674 1.84325 6.54707C1.62773 6.02674 1.57133 5.45419 1.68121 4.90181C1.79108 4.34943 2.06229 3.84204 2.46053 3.4438C2.85877 3.04555 3.36617 2.77435 3.91854 2.66447C4.47092 2.5546 5.04348 2.61099 5.56381 2.82652C6.08413 3.04204 6.52887 3.40703 6.84176 3.87531C7.15466 4.34359 7.32167 4.89415 7.32167 5.45735C7.32081 6.21231 7.02052 6.9361 6.48668 7.46994C5.95284 8.00378 5.22904 8.30407 4.47408 8.30493ZM4.47408 4.23695C4.23271 4.23695 3.99676 4.30853 3.79607 4.44262C3.59537 4.57672 3.43895 4.76732 3.34658 4.99032C3.25421 5.21332 3.23005 5.4587 3.27714 5.69543C3.32423 5.93217 3.44046 6.14962 3.61113 6.32029C3.78181 6.49097 3.99926 6.6072 4.23599 6.65429C4.47273 6.70138 4.71811 6.67721 4.94111 6.58484C5.1641 6.49247 5.3547 6.33605 5.4888 6.13536C5.6229 5.93467 5.69448 5.69872 5.69448 5.45735C5.69405 5.13381 5.56533 4.82365 5.33655 4.59487C5.10778 4.3661 4.79762 4.23738 4.47408 4.23695Z" fill="#3A3A3A"/>
<path d="M17.9017 16.4409C17.4693 16.4409 17.0546 16.2691 16.7488 15.9633C16.4431 15.6576 16.2713 15.2428 16.2713 14.8104V13.1897C16.2713 12.7573 16.4431 12.3426 16.7488 12.0368C17.0546 11.7311 17.4693 11.5593 17.9017 11.5593H19.5257V9.1185H9.76251V11.5593H11.3865C11.8189 11.5593 12.2336 11.7311 12.5394 12.0368C12.8451 12.3426 13.0169 12.7573 13.0169 13.1897V14.8104C13.0169 15.2428 12.8451 15.6576 12.5394 15.9633C12.2336 16.2691 11.8189 16.4409 11.3865 16.4409H9.76251V18.8817H19.5257V16.4409H17.9017Z" fill="#3A3A3A"/>
<path d="M25.1883 25.3905L23.6253 19.919C23.5811 19.7648 23.5835 19.601 23.6321 19.4481C23.6808 19.2952 23.7735 19.1602 23.8987 19.0599L27.5591 16.1317L26.4575 11.7229L24.2298 14.5086C24.1534 14.6038 24.0565 14.6807 23.9464 14.7335C23.8363 14.7863 23.7157 14.8137 23.5936 14.8137H19.5256V13.1865H23.2031L26.2134 9.42363C26.3082 9.30547 26.4341 9.21614 26.577 9.16568C26.7198 9.11522 26.8739 9.10565 27.0219 9.13804C27.1699 9.17043 27.3059 9.24349 27.4146 9.349C27.5233 9.45451 27.6004 9.58828 27.6372 9.73524L29.2644 16.244C29.3023 16.395 29.2961 16.5537 29.2465 16.7012C29.1969 16.8488 29.106 16.9789 28.9845 17.0763L25.3396 19.9922L26.7536 24.9438L25.1883 25.3905ZM21.9664 5.45735C21.9664 4.89415 22.1334 4.34359 22.4463 3.87531C22.7592 3.40703 23.204 3.04204 23.7243 2.82652C24.2446 2.61099 24.8172 2.5546 25.3695 2.66447C25.9219 2.77435 26.4293 3.04555 26.8276 3.4438C27.2258 3.84204 27.497 4.34943 27.6069 4.90181C27.7168 5.45419 27.6604 6.02674 27.4448 6.54707C27.2293 7.0674 26.8643 7.51213 26.396 7.82503C25.9278 8.13792 25.3772 8.30493 24.814 8.30493C24.059 8.30407 23.3353 8.00378 22.8014 7.46994C22.2676 6.9361 21.9673 6.21231 21.9664 5.45735ZM23.5936 5.45735C23.5936 5.69872 23.6652 5.93467 23.7993 6.13536C23.9334 6.33605 24.124 6.49247 24.347 6.58484C24.57 6.67721 24.8154 6.70138 25.0521 6.65429C25.2888 6.6072 25.5063 6.49097 25.677 6.32029C25.8476 6.14962 25.9639 5.93217 26.011 5.69543C26.058 5.4587 26.0339 5.21332 25.9415 4.99032C25.8491 4.76732 25.6927 4.57672 25.492 4.44262C25.2913 4.30853 25.0554 4.23695 24.814 4.23695C24.4905 4.23738 24.1803 4.3661 23.9515 4.59487C23.7228 4.82365 23.594 5.13381 23.5936 5.45735Z" fill="#3A3A3A"/>
</svg>
