<svg width="27" height="24" viewBox="0 0 27 24" fill="none" xmlns="http://www.w3.org/2000/svg">
<path d="M2 2H11C11.5304 2 12.0391 2.21071 12.4142 2.58579C12.7893 2.96086 13 3.46957 13 4V5C13 5.26522 12.8946 5.51957 12.7071 5.70711C12.5196 5.89464 12.2652 6 12 6C11.7348 6 11.4804 5.89464 11.2929 5.70711C11.1054 5.51957 11 5.26522 11 5V4H2V20H11V19C11 18.7348 11.1054 18.4804 11.2929 18.2929C11.4804 18.1054 11.7348 18 12 18C12.2652 18 12.5196 18.1054 12.7071 18.2929C12.8946 18.4804 13 18.7348 13 19V20C13 20.5304 12.7893 21.0391 12.4142 21.4142C12.0391 21.7893 11.5304 22 11 22H2C1.46957 22 0.960859 21.7893 0.585786 21.4142C0.210714 21.0391 0 20.5304 0 20V4C0 3.46957 0.210714 2.96086 0.585786 2.58579C0.960859 2.21071 1.46957 2 2 2Z" fill="#ED3A3A"/>
<path d="M20.795 16.2777C21.185 16.6677 21.815 16.6677 22.205 16.2777L25.793 12.6897C25.9805 12.5021 26.0858 12.2478 26.0858 11.9827C26.0858 11.7175 25.9805 11.4632 25.793 11.2757L22.205 7.68767C22.0149 7.51586 21.7661 7.42366 21.5099 7.43013C21.2538 7.43659 21.0099 7.54123 20.8287 7.72241C20.6476 7.90359 20.5429 8.14746 20.5365 8.4036C20.53 8.65974 20.6222 8.90858 20.794 9.09867L22.67 10.9827H14C13.7348 10.9827 13.4804 11.088 13.2929 11.2756C13.1054 11.4631 13 11.7175 13 11.9827C13 12.2479 13.1054 12.5022 13.2929 12.6898C13.4804 12.8773 13.7348 12.9827 14 12.9827H22.67L20.794 14.8667C20.6073 15.0541 20.5026 15.3079 20.5028 15.5724C20.503 15.8369 20.6081 16.0905 20.795 16.2777Z" fill="#ED3A3A"/>
</svg>
