<svg width="16" height="16" viewBox="0 0 16 16" fill="none" xmlns="http://www.w3.org/2000/svg">
<g opacity="0.6">
<mask id="path-1-inside-1_2_3757" fill="white">
<path d="M16 7.42857H12.5314C12.4031 6.42314 11.9447 5.48876 11.228 4.77205C10.5112 4.05534 9.57686 3.59686 8.57143 3.46857V0H7.42857V3.46857C6.42314 3.59686 5.48876 4.05534 4.77205 4.77205C4.05534 5.48876 3.59686 6.42314 3.46857 7.42857H0V8.57143H3.46857C3.59686 9.57686 4.05534 10.5112 4.77205 11.228C5.48876 11.9447 6.42314 12.4031 7.42857 12.5314V16H8.57143V12.5314C9.57686 12.4031 10.5112 11.9447 11.228 11.228C11.9447 10.5112 12.4031 9.57686 12.5314 8.57143H16V7.42857ZM8 11.4286C7.32189 11.4286 6.65901 11.2275 6.09519 10.8508C5.53136 10.474 5.09191 9.93855 4.83241 9.31206C4.57291 8.68557 4.50502 7.9962 4.63731 7.33112C4.7696 6.66604 5.09614 6.05513 5.57563 5.57563C6.05513 5.09614 6.66604 4.7696 7.33112 4.63731C7.9962 4.50502 8.68557 4.57291 9.31206 4.83241C9.93855 5.09191 10.474 5.53136 10.8508 6.09519C11.2275 6.65901 11.4286 7.32189 11.4286 8C11.4275 8.90899 11.066 9.78045 10.4232 10.4232C9.78045 11.066 8.90899 11.4275 8 11.4286Z"/>
</mask>
<path d="M16 7.42857H12.5314C12.4031 6.42314 11.9447 5.48876 11.228 4.77205C10.5112 4.05534 9.57686 3.59686 8.57143 3.46857V0H7.42857V3.46857C6.42314 3.59686 5.48876 4.05534 4.77205 4.77205C4.05534 5.48876 3.59686 6.42314 3.46857 7.42857H0V8.57143H3.46857C3.59686 9.57686 4.05534 10.5112 4.77205 11.228C5.48876 11.9447 6.42314 12.4031 7.42857 12.5314V16H8.57143V12.5314C9.57686 12.4031 10.5112 11.9447 11.228 11.228C11.9447 10.5112 12.4031 9.57686 12.5314 8.57143H16V7.42857ZM8 11.4286C7.32189 11.4286 6.65901 11.2275 6.09519 10.8508C5.53136 10.474 5.09191 9.93855 4.83241 9.31206C4.57291 8.68557 4.50502 7.9962 4.63731 7.33112C4.7696 6.66604 5.09614 6.05513 5.57563 5.57563C6.05513 5.09614 6.66604 4.7696 7.33112 4.63731C7.9962 4.50502 8.68557 4.57291 9.31206 4.83241C9.93855 5.09191 10.474 5.53136 10.8508 6.09519C11.2275 6.65901 11.4286 7.32189 11.4286 8C11.4275 8.90899 11.066 9.78045 10.4232 10.4232C9.78045 11.066 8.90899 11.4275 8 11.4286Z" fill="#0560FA"/>
<path d="M16 7.42857H18V5.42857H16V7.42857ZM12.5314 7.42857L10.5475 7.68172L10.7704 9.42857H12.5314V7.42857ZM8.57143 3.46857H6.57143V5.22959L8.31828 5.45249L8.57143 3.46857ZM8.57143 0H10.5714V-2H8.57143V0ZM7.42857 0V-2H5.42857V0H7.42857ZM7.42857 3.46857L7.68172 5.45249L9.42857 5.22959V3.46857H7.42857ZM3.46857 7.42857V9.42857H5.22959L5.45249 7.68172L3.46857 7.42857ZM0 7.42857V5.42857H-2V7.42857H0ZM0 8.57143H-2V10.5714H0V8.57143ZM3.46857 8.57143L5.45249 8.31828L5.22959 6.57143H3.46857V8.57143ZM7.42857 12.5314H9.42857V10.7704L7.68172 10.5475L7.42857 12.5314ZM7.42857 16H5.42857V18H7.42857V16ZM8.57143 16V18H10.5714V16H8.57143ZM8.57143 12.5314L8.31828 10.5475L6.57143 10.7704V12.5314H8.57143ZM12.5314 8.57143V6.57143H10.7704L10.5475 8.31828L12.5314 8.57143ZM16 8.57143V10.5714H18V8.57143H16ZM8 11.4286V13.4286L8.00233 13.4286L8 11.4286ZM11.4286 8L13.4286 8.00233V8H11.4286ZM16 5.42857H12.5314V9.42857H16V5.42857ZM14.5153 7.17543C14.331 5.73056 13.6721 4.38779 12.6422 3.35783L9.81374 6.18626C10.2172 6.58972 10.4753 7.11572 10.5475 7.68172L14.5153 7.17543ZM12.6422 3.35783C11.6122 2.32788 10.2694 1.66902 8.82457 1.48466L8.31828 5.45249C8.88428 5.52471 9.41028 5.7828 9.81374 6.18626L12.6422 3.35783ZM10.5714 3.46857V0H6.57143V3.46857H10.5714ZM8.57143 -2H7.42857V2H8.57143V-2ZM5.42857 0V3.46857H9.42857V0H5.42857ZM7.17543 1.48466C5.73056 1.66902 4.38779 2.32788 3.35783 3.35783L6.18626 6.18626C6.58972 5.7828 7.11572 5.52471 7.68172 5.45249L7.17543 1.48466ZM3.35783 3.35783C2.32788 4.38779 1.66902 5.73056 1.48466 7.17543L5.45249 7.68172C5.52471 7.11572 5.7828 6.58972 6.18626 6.18626L3.35783 3.35783ZM3.46857 5.42857H0V9.42857H3.46857V5.42857ZM-2 7.42857V8.57143H2V7.42857H-2ZM0 10.5714H3.46857V6.57143H0V10.5714ZM1.48466 8.82457C1.66902 10.2694 2.32788 11.6122 3.35783 12.6422L6.18626 9.81374C5.7828 9.41028 5.52471 8.88428 5.45249 8.31828L1.48466 8.82457ZM3.35783 12.6422C4.38779 13.6721 5.73056 14.331 7.17543 14.5153L7.68172 10.5475C7.11572 10.4753 6.58972 10.2172 6.18626 9.81374L3.35783 12.6422ZM5.42857 12.5314V16H9.42857V12.5314H5.42857ZM7.42857 18H8.57143V14H7.42857V18ZM10.5714 16V12.5314H6.57143V16H10.5714ZM8.82457 14.5153C10.2694 14.331 11.6122 13.6721 12.6422 12.6422L9.81374 9.81374C9.41028 10.2172 8.88428 10.4753 8.31828 10.5475L8.82457 14.5153ZM12.6422 12.6422C13.6721 11.6122 14.331 10.2694 14.5153 8.82457L10.5475 8.31828C10.4753 8.88428 10.2172 9.41028 9.81374 9.81374L12.6422 12.6422ZM12.5314 10.5714H16V6.57143H12.5314V10.5714ZM18 8.57143V7.42857H14V8.57143H18ZM8 9.42857C7.71746 9.42857 7.44126 9.34479 7.20633 9.18781L4.98405 12.5137C5.87677 13.1102 6.92633 13.4286 8 13.4286V9.42857ZM7.20633 9.18781C6.9714 9.03084 6.7883 8.80773 6.68017 8.54669L2.98465 10.0774C3.39553 11.0694 4.09132 11.9172 4.98405 12.5137L7.20633 9.18781ZM6.68017 8.54669C6.57205 8.28565 6.54376 7.99842 6.59888 7.7213L2.67574 6.94094C2.46627 7.99398 2.57378 9.08548 2.98465 10.0774L6.68017 8.54669ZM6.59888 7.7213C6.654 7.44418 6.79006 7.18964 6.98985 6.98985L4.16142 4.16142C3.40222 4.92062 2.8852 5.8879 2.67574 6.94094L6.59888 7.7213ZM6.98985 6.98985C7.18964 6.79006 7.44418 6.654 7.7213 6.59888L6.94094 2.67574C5.8879 2.8852 4.92062 3.40222 4.16142 4.16142L6.98985 6.98985ZM7.7213 6.59888C7.99842 6.54376 8.28565 6.57205 8.54669 6.68017L10.0774 2.98465C9.08548 2.57378 7.99398 2.46627 6.94094 2.67574L7.7213 6.59888ZM8.54669 6.68017C8.80773 6.7883 9.03084 6.9714 9.18781 7.20633L12.5137 4.98405C11.9172 4.09132 11.0694 3.39553 10.0774 2.98465L8.54669 6.68017ZM9.18781 7.20633C9.34479 7.44126 9.42857 7.71746 9.42857 8H13.4286C13.4286 6.92633 13.1102 5.87677 12.5137 4.98405L9.18781 7.20633ZM9.42857 7.99767C9.42813 8.37704 9.27723 8.74073 9.00898 9.00898L11.8374 11.8374C12.8547 10.8202 13.4269 9.44094 13.4286 8.00233L9.42857 7.99767ZM9.00898 9.00898C8.74073 9.27723 8.37704 9.42813 7.99767 9.42857L8.00233 13.4286C9.44094 13.4269 10.8202 12.8547 11.8374 11.8374L9.00898 9.00898Z" fill="#0560FA" mask="url(#path-1-inside-1_2_3757)"/>
</g>
</svg>
