<svg width="20" height="20" viewBox="0 0 20 20" fill="none" xmlns="http://www.w3.org/2000/svg">
<path d="M10.0166 2.42493C7.25828 2.42493 5.01662 4.66659 5.01662 7.42493V9.83326C5.01662 10.3416 4.79995 11.1166 4.54162 11.5499L3.58328 13.1416C2.99162 14.1249 3.39995 15.2166 4.48328 15.5833C8.07495 16.7833 11.95 16.7833 15.5416 15.5833C16.55 15.2499 16.9916 14.0583 16.4416 13.1416L15.4833 11.5499C15.2333 11.1166 15.0166 10.3416 15.0166 9.83326V7.42493C15.0166 4.67493 12.7666 2.42493 10.0166 2.42493Z" stroke="#3A3A3A" stroke-width="1.25" stroke-miterlimit="10" stroke-linecap="round"/>
<path d="M11.5584 2.66662C11.3 2.59162 11.0334 2.53328 10.7584 2.49995C9.95837 2.39995 9.1917 2.45828 8.47504 2.66662C8.7167 2.04995 9.3167 1.61662 10.0167 1.61662C10.7167 1.61662 11.3167 2.04995 11.5584 2.66662Z" stroke="#3A3A3A" stroke-width="1.25" stroke-miterlimit="10" stroke-linecap="round" stroke-linejoin="round"/>
<path d="M12.5167 15.8834C12.5167 17.2584 11.3917 18.3834 10.0167 18.3834C9.33333 18.3834 8.7 18.1 8.25 17.65C7.8 17.2 7.51666 16.5667 7.51666 15.8834" stroke="#3A3A3A" stroke-width="1.25" stroke-miterlimit="10"/>
</svg>
