<svg width="21" height="21" viewBox="0 0 21 21" fill="none" xmlns="http://www.w3.org/2000/svg">
<path d="M10.5 1C5.25315 1 1 5.25315 1 10.5C1 15.7468 5.25315 20 10.5 20C15.7468 20 20 15.7468 20 10.5C20 5.25315 15.7468 1 10.5 1Z" stroke="#3A3A3A" stroke-width="1.425" stroke-linecap="round" stroke-linejoin="round"/>
<path d="M3.15741 16.5287C3.15741 16.5287 5.27496 13.825 10.5 13.825C15.725 13.825 17.8435 16.5287 17.8435 16.5287M10.5 10.5C11.2558 10.5 11.9807 10.1997 12.5152 9.66521C13.0497 9.13073 13.35 8.40582 13.35 7.64996C13.35 6.89409 13.0497 6.16918 12.5152 5.6347C11.9807 5.10022 11.2558 4.79996 10.5 4.79996C9.74409 4.79996 9.01918 5.10022 8.48471 5.6347C7.95023 6.16918 7.64996 6.89409 7.64996 7.64996C7.64996 8.40582 7.95023 9.13073 8.48471 9.66521C9.01918 10.1997 9.74409 10.5 10.5 10.5V10.5Z" stroke="#3A3A3A" stroke-width="1.425" stroke-linecap="round" stroke-linejoin="round"/>
</svg>
