<svg width="50" height="48" viewBox="0 0 50 48" fill="none" xmlns="http://www.w3.org/2000/svg">
<rect width="49.4286" height="48" rx="24" fill="#0560FA"/>
<path d="M24.7143 14L35.4286 18.2857V19.7143H34C34 19.9077 33.9237 20.0751 33.7712 20.2165C33.6187 20.3579 33.4382 20.4286 33.2299 20.4286H16.1987C15.9903 20.4286 15.8099 20.3579 15.6574 20.2165C15.5048 20.0751 15.4286 19.9077 15.4286 19.7143H14V18.2857L24.7143 14ZM16.8571 21.1429H19.7143V29.7143H21.1429V21.1429H24V29.7143H25.4286V21.1429H28.2857V29.7143H29.7143V21.1429H32.5714V29.7143H33.2299C33.4382 29.7143 33.6187 29.785 33.7712 29.9263C33.9237 30.0677 34 30.2351 34 30.4286V31.1429H15.4286V30.4286C15.4286 30.2351 15.5048 30.0677 15.6574 29.9263C15.8099 29.785 15.9903 29.7143 16.1987 29.7143H16.8571V21.1429ZM34.6585 31.8571C34.8668 31.8571 35.0472 31.9278 35.1998 32.0692C35.3523 32.2106 35.4286 32.378 35.4286 32.5714V34H14V32.5714C14 32.378 14.0763 32.2106 14.2288 32.0692C14.3813 31.9278 14.5618 31.8571 14.7701 31.8571H34.6585Z" fill="white"/>
</svg>
