<svg width="16" height="16" viewBox="0 0 16 16" fill="none" xmlns="http://www.w3.org/2000/svg">
<rect y="0.321289" width="15.3574" height="15.3574" rx="7.67868" fill="#0560FA"/>
<path d="M7.67868 5.76018V2.24078" stroke="white" stroke-width="0.959835" stroke-linecap="round" stroke-linejoin="round"/>
<path d="M7.67868 13.7588V10.2394" stroke="white" stroke-width="0.959835" stroke-linecap="round" stroke-linejoin="round"/>
<path d="M6.3989 2.24078H8.95846" stroke="white" stroke-width="0.959835" stroke-linecap="round" stroke-linejoin="round"/>
<path d="M6.3989 13.7589H8.95846" stroke="white" stroke-width="0.959835" stroke-linecap="round" stroke-linejoin="round"/>
<path d="M5.73979 6.88L2.69391 5.1203" stroke="white" stroke-width="0.959835" stroke-linecap="round" stroke-linejoin="round"/>
<path d="M12.6634 10.8793L9.61755 9.11963" stroke="white" stroke-width="0.959835" stroke-linecap="round" stroke-linejoin="round"/>
<path d="M2.05408 6.22732L3.33386 4.01331" stroke="white" stroke-width="0.959835" stroke-linecap="round" stroke-linejoin="round"/>
<path d="M12.0235 11.9864L13.3033 9.77234" stroke="white" stroke-width="0.959835" stroke-linecap="round" stroke-linejoin="round"/>
<path d="M9.91832 7.99981C9.91832 8.40934 9.80954 8.78687 9.61757 9.11962C9.22724 9.7915 8.50416 10.2394 7.6787 10.2394C6.85324 10.2394 6.13017 9.7915 5.73984 9.11962C5.54787 8.78687 5.43909 8.40934 5.43909 7.99981C5.43909 7.59028 5.54787 7.21274 5.73984 6.88C6.13017 6.20812 6.85324 5.76019 7.6787 5.76019C8.50416 5.76019 9.22724 6.20812 9.61757 6.88C9.80954 7.21274 9.91832 7.59028 9.91832 7.99981Z" stroke="white" stroke-width="0.959835" stroke-linecap="round" stroke-linejoin="round"/>
<path d="M12.6634 5.1203L9.61755 6.88" stroke="white" stroke-width="0.959835" stroke-linecap="round" stroke-linejoin="round"/>
<path d="M5.73979 9.11963L2.69391 10.8793" stroke="white" stroke-width="0.959835" stroke-linecap="round" stroke-linejoin="round"/>
<path d="M13.3033 6.22732L12.0235 4.01331" stroke="white" stroke-width="0.959835" stroke-linecap="round" stroke-linejoin="round"/>
<path d="M3.33386 11.9864L2.05408 9.77234" stroke="white" stroke-width="0.959835" stroke-linecap="round" stroke-linejoin="round"/>
</svg>
