<svg width="35" height="37" viewBox="0 0 35 37" fill="none" xmlns="http://www.w3.org/2000/svg">
<path d="M20.9645 0.64219C20.6731 0.404075 20.3375 0.226114 19.9769 0.118607C19.6163 0.0110999 19.2379 -0.0238173 18.8638 0.0158762C18.4896 0.0555698 18.127 0.169086 17.797 0.349853C17.467 0.530621 17.1761 0.77505 16.9412 1.06899L8.70106 11.3919H12.3431L19.1634 2.84449L21.3543 4.63421L15.8628 11.3919H19.5276L23.5595 6.42962L28.4478 10.4216L27.5998 11.3919H28.4534C29.302 11.391 30.1459 11.5166 30.9573 11.7646C31.2673 11.1831 31.3659 10.5121 31.2361 9.86601C31.1064 9.21995 30.7564 8.63895 30.246 8.22219L20.9645 0.64219ZM2.84534 12.8146C2.84534 12.4373 2.99523 12.0754 3.26204 11.8086C3.52884 11.5418 3.8907 11.3919 4.26802 11.3919H5.85572L8.11777 8.54656H4.26802C3.13607 8.54656 2.05048 8.99622 1.25007 9.79663C0.449665 10.597 0 11.6826 0 12.8146V29.8866C0 31.7732 0.749441 33.5825 2.08346 34.9165C3.41747 36.2506 5.22678 37 7.11336 37H28.4534C29.9627 37 31.4102 36.4004 32.4774 35.3332C33.5446 34.266 34.1441 32.8186 34.1441 31.3093V19.9279C34.1441 18.4187 33.5446 16.9712 32.4774 15.904C31.4102 14.8368 29.9627 14.2372 28.4534 14.2372H4.26802C3.8907 14.2372 3.52884 14.0874 3.26204 13.8206C2.99523 13.5538 2.84534 13.1919 2.84534 12.8146ZM24.1854 25.6186H27.0308C27.4081 25.6186 27.77 25.7685 28.0368 26.0353C28.3036 26.3021 28.4534 26.664 28.4534 27.0413C28.4534 27.4186 28.3036 27.7805 28.0368 28.0473C27.77 28.3141 27.4081 28.464 27.0308 28.464H24.1854C23.8081 28.464 23.4462 28.3141 23.1794 28.0473C22.9126 27.7805 22.7628 27.4186 22.7628 27.0413C22.7628 26.664 22.9126 26.3021 23.1794 26.0353C23.4462 25.7685 23.8081 25.6186 24.1854 25.6186Z" fill="#0560FA"/>
</svg>
