<svg width="35" height="33" viewBox="0 0 35 33" fill="none" xmlns="http://www.w3.org/2000/svg">
<path d="M6.31966 32.5557C6.07147 32.7817 5.76687 32.9289 5.4416 32.98C5.11634 33.0311 4.78392 32.9839 4.48338 32.8439C4.18283 32.704 3.92663 32.4772 3.74485 32.19C3.56307 31.9029 3.46326 31.5674 3.45714 31.2229V27.1614C2.54025 27.1614 1.66091 26.7799 1.01257 26.1007C0.364234 25.4215 0 24.5004 0 23.5399V10.8646C0 9.90407 0.364234 8.98293 1.01257 8.30376C1.66091 7.62459 2.54025 7.24304 3.45714 7.24304H22.4714C23.3883 7.24304 24.2677 7.62459 24.916 8.30376C25.5643 8.98293 25.9286 9.90407 25.9286 10.8646V23.5399C25.9286 24.5004 25.5643 25.4215 24.916 26.1007C24.2677 26.7799 23.3883 27.1614 22.4714 27.1614H13.8338L6.31966 32.5557ZM27.6571 18.1384C27.6516 18.3611 27.6516 18.5839 27.6571 18.8066V18.1366C27.6658 17.9428 27.6675 15.5164 27.6641 10.8591C27.6627 9.41934 27.1157 8.03901 26.1434 7.02144C25.171 6.00386 23.8528 5.43228 22.4783 5.43228H8.64286V3.62152C8.64286 2.66103 9.00709 1.73989 9.65543 1.06072C10.3038 0.381552 11.1831 0 12.1 0L31.1143 0C32.0312 0 32.9105 0.381552 33.5589 1.06072C34.2072 1.73989 34.5714 2.66103 34.5714 3.62152V16.2968C34.5714 17.2573 34.2072 18.1785 33.5589 18.8576C32.9105 19.5368 32.0312 19.9184 31.1143 19.9184V23.9799C31.1082 24.3244 31.0084 24.6599 30.8266 24.947C30.6448 25.2341 30.3886 25.461 30.0881 25.6009C29.7875 25.7408 29.4551 25.788 29.1298 25.737C28.8046 25.6859 28.5 25.5387 28.2518 25.3126L27.6571 24.8853V18.1384Z" fill="white"/>
</svg>
