<svg width="36" height="37" viewBox="0 0 36 37" fill="none" xmlns="http://www.w3.org/2000/svg">
<path fill-rule="evenodd" clip-rule="evenodd" d="M15.4029 9.592C16.2825 9.75783 17.107 10.1396 17.8024 10.703C18.4978 11.2663 19.0424 11.9937 19.3872 12.8196C19.7319 13.6456 19.8661 14.5442 19.7775 15.4348C19.689 16.3254 19.3806 17.1801 18.8799 17.922L32.7139 28.66C33.1645 28.4266 33.6807 28.3523 34.1788 28.4492C34.6769 28.5462 35.1276 28.8086 35.4577 29.194C35.7878 29.5794 35.978 30.065 35.9973 30.572C36.0167 31.0791 35.864 31.5778 35.5642 31.9872C35.2644 32.3966 34.835 32.6926 34.3458 32.8272C33.8565 32.9618 33.3362 32.9271 32.8691 32.7286C32.4021 32.5302 32.0159 32.1798 31.7731 31.7342C31.5304 31.2886 31.4454 30.774 31.5319 30.274L17.4619 19.352C16.7994 19.806 16.0439 20.1066 15.2505 20.2317C14.4571 20.3568 13.6458 20.3033 12.8757 20.0752C12.1055 19.847 11.396 19.45 10.7988 18.9129C10.2015 18.3759 9.73158 17.7124 9.42321 16.9707C9.11485 16.2291 8.97582 15.428 9.01624 14.6258C9.05667 13.8236 9.27553 13.0405 9.65689 12.3336C10.0383 11.6268 10.5725 11.0138 11.2207 10.5396C11.8689 10.0653 12.6148 9.74155 13.4039 9.592L13.4019 0.5H15.4019V9.592H15.4029ZM16.2019 14.9C16.2019 15.1364 16.1554 15.3704 16.0649 15.5888C15.9745 15.8072 15.8419 16.0056 15.6747 16.1728C15.5076 16.3399 15.3092 16.4725 15.0908 16.563C14.8724 16.6534 14.6383 16.7 14.4019 16.7C14.1656 16.7 13.9315 16.6534 13.7131 16.563C13.4947 16.4725 13.2963 16.3399 13.1292 16.1728C12.962 16.0056 12.8294 15.8072 12.739 15.5888C12.6485 15.3704 12.6019 15.1364 12.6019 14.9C12.6019 14.4226 12.7916 13.9648 13.1292 13.6272C13.4667 13.2896 13.9246 13.1 14.4019 13.1C14.8793 13.1 15.3372 13.2896 15.6747 13.6272C16.0123 13.9648 16.2019 14.4226 16.2019 14.9Z" fill="#0560FA"/>
<path d="M21.626 14.884C21.6263 13.5007 21.2282 12.1467 20.4793 10.9837C19.7304 9.82071 18.6624 8.89804 17.403 8.32599V0.605988C21.692 0.982988 23.92 2.33399 25.915 4.18299C26.015 4.27699 26.115 4.36799 26.211 4.45599V4.45699C27.061 5.23699 27.737 5.85799 28.086 6.78799L32.32 18.06C32.4335 18.3625 32.4719 18.6881 32.432 19.0087C32.3921 19.3294 32.2751 19.6356 32.091 19.9011C31.9069 20.1666 31.6611 20.3836 31.3748 20.5333C31.0885 20.6831 30.7701 20.7612 30.447 20.761H28.816V23.1L21.241 17.217C21.4974 16.4663 21.6279 15.6783 21.627 14.885L21.626 14.884ZM11.403 8.34599V0.740988C2.413 2.09399 0 8.80099 0 12.475C0 18.242 3.683 22.715 5.41 24.508V36.5H22.522V29.988H26.815C27.117 29.988 27.405 29.92 27.661 29.8L17.076 21.58C15.3265 22.3019 13.3631 22.306 11.6106 21.5914C9.85813 20.8767 8.45752 19.5007 7.71184 17.7612C6.96617 16.0217 6.93539 14.0585 7.62619 12.2965C8.31698 10.5344 9.67378 9.11524 11.403 8.34599Z" fill="#0560FA"/>
</svg>
