<svg width="16" height="24" viewBox="0 0 16 24" fill="none" xmlns="http://www.w3.org/2000/svg">
<path fill-rule="evenodd" clip-rule="evenodd" d="M2.28571 1.71428C1.98261 1.71428 1.69192 1.83469 1.47759 2.04902C1.26327 2.26335 1.14286 2.55404 1.14286 2.85714V18.8571C1.14286 19.1602 1.26327 19.4509 1.47759 19.6653C1.69192 19.8796 1.98261 20 2.28571 20H8.57143V21.1429H2.28571C1.67951 21.1429 1.09812 20.902 0.66947 20.4734C0.240816 20.0447 0 19.4633 0 18.8571V2.85714C0 2.25093 0.240816 1.66955 0.66947 1.2409C1.09812 0.812242 1.67951 0.571426 2.28571 0.571426H13.7143C14.3205 0.571426 14.9019 0.812242 15.3305 1.2409C15.7592 1.66955 16 2.25093 16 2.85714V18.8571C16 19.4633 15.7592 20.0447 15.3305 20.4734C14.9019 20.902 14.3205 21.1429 13.7143 21.1429H12V20H13.7143C14.0174 20 14.3081 19.8796 14.5224 19.6653C14.7367 19.4509 14.8571 19.1602 14.8571 18.8571V2.85714C14.8571 2.55404 14.7367 2.26335 14.5224 2.04902C14.3081 1.83469 14.0174 1.71428 13.7143 1.71428H2.28571Z" fill="#3A3A3A"/>
<path fill-rule="evenodd" clip-rule="evenodd" d="M4.57142 4.57142C4.57142 4.41987 4.63162 4.27453 4.73879 4.16736C4.84595 4.0602 4.9913 4 5.14285 4H10.8571C11.0087 4 11.154 4.0602 11.2612 4.16736C11.3684 4.27453 11.4286 4.41987 11.4286 4.57142C11.4286 4.72298 11.3684 4.86832 11.2612 4.97549C11.154 5.08265 11.0087 5.14285 10.8571 5.14285H5.14285C4.9913 5.14285 4.84595 5.08265 4.73879 4.97549C4.63162 4.86832 4.57142 4.72298 4.57142 4.57142ZM2.28571 8C2.28571 7.84844 2.34591 7.7031 2.45307 7.59593C2.56024 7.48877 2.70558 7.42857 2.85713 7.42857H13.1428C13.2944 7.42857 13.4397 7.48877 13.5469 7.59593C13.6541 7.7031 13.7143 7.84844 13.7143 8C13.7143 8.15155 13.6541 8.29689 13.5469 8.40406C13.4397 8.51122 13.2944 8.57142 13.1428 8.57142H2.85713C2.70558 8.57142 2.56024 8.51122 2.45307 8.40406C2.34591 8.29689 2.28571 8.15155 2.28571 8ZM2.28571 10.2857C2.28571 10.1342 2.34591 9.98881 2.45307 9.88165C2.56024 9.77449 2.70558 9.71428 2.85713 9.71428H13.1428C13.2944 9.71428 13.4397 9.77449 13.5469 9.88165C13.6541 9.98881 13.7143 10.1342 13.7143 10.2857C13.7143 10.4373 13.6541 10.5826 13.5469 10.6898C13.4397 10.7969 13.2944 10.8571 13.1428 10.8571H2.85713C2.70558 10.8571 2.56024 10.7969 2.45307 10.6898C2.34591 10.5826 2.28571 10.4373 2.28571 10.2857ZM2.28571 12.5714C2.28571 12.4199 2.34591 12.2745 2.45307 12.1674C2.56024 12.0602 2.70558 12 2.85713 12H13.1428C13.2944 12 13.4397 12.0602 13.5469 12.1674C13.6541 12.2745 13.7143 12.4199 13.7143 12.5714C13.7143 12.723 13.6541 12.8683 13.5469 12.9755C13.4397 13.0827 13.2944 13.1429 13.1428 13.1429H2.85713C2.70558 13.1429 2.56024 13.0827 2.45307 12.9755C2.34591 12.8683 2.28571 12.723 2.28571 12.5714ZM10.2857 18.2857C10.5888 18.2857 10.8795 18.1653 11.0938 17.951C11.3082 17.7366 11.4286 17.446 11.4286 17.1429C11.4286 16.8397 11.3082 16.5491 11.0938 16.3347C10.8795 16.1204 10.5888 16 10.2857 16C9.9826 16 9.69191 16.1204 9.47758 16.3347C9.26326 16.5491 9.14285 16.8397 9.14285 17.1429C9.14285 17.446 9.26326 17.7366 9.47758 17.951C9.69191 18.1653 9.9826 18.2857 10.2857 18.2857ZM10.2857 19.4286C10.8919 19.4286 11.4733 19.1878 11.9019 18.7591C12.3306 18.3304 12.5714 17.7491 12.5714 17.1429C12.5714 16.5366 12.3306 15.9553 11.9019 15.5266C11.4733 15.098 10.8919 14.8571 10.2857 14.8571C9.6795 14.8571 9.09812 15.098 8.66946 15.5266C8.24081 15.9553 7.99999 16.5366 7.99999 17.1429C7.99999 17.7491 8.24081 18.3304 8.66946 18.7591C9.09812 19.1878 9.6795 19.4286 10.2857 19.4286Z" fill="#3A3A3A"/>
<path fill-rule="evenodd" clip-rule="evenodd" d="M9.71427 18.2857H8.57141V23.4286L10.2857 22.5714L12 23.4286V18.2857H10.8571V21.5794L10.2857 21.2937L9.71427 21.5794V18.2857Z" fill="#3A3A3A"/>
</svg>
