<svg width="25" height="24" viewBox="0 0 25 24" fill="none" xmlns="http://www.w3.org/2000/svg">
<path d="M2 2.24738L8.00525 2.24741V0.752655C8.00525 0.33828 8.34088 0.00265503 8.75525 0.00265503C9.16963 0.00265503 9.50525 0.33828 9.50525 0.752655V2.24703H15.5052V0.752655C15.5052 0.33828 15.8409 0.00265503 16.2552 0.00265503C16.6696 0.00265503 17.0052 0.33828 17.0052 0.752655V2.24703H23C23.8284 2.24703 24.5 2.91865 24.5 3.74703V22.497C24.5 23.3254 23.8284 23.997 23 23.997H2C1.17163 23.997 0.5 23.3254 0.5 22.497V3.74703C0.5 2.91901 1.17163 2.24738 2 2.24738ZM2 22.497H23V3.74703H17.0052V4.50266C17.0052 4.91701 16.6696 5.25266 16.2552 5.25266C15.8409 5.25266 15.5052 4.91701 15.5052 4.50266V3.74741H9.50525V4.50303C9.50525 4.9174 9.16963 5.25303 8.75525 5.25303C8.34088 5.25303 8.00525 4.9174 8.00525 4.50303V3.74741H2V22.497ZM7.25 11.9974H5.75C5.336 11.9974 5 11.6614 5 11.2474V9.74738C5 9.33338 5.336 8.99738 5.75 8.99738H7.25C7.664 8.99738 8 9.33338 8 9.74738V11.2474C8 11.6614 7.664 11.9974 7.25 11.9974ZM7.25 17.997H5.75C5.336 17.997 5 17.6614 5 17.247V15.747C5 15.333 5.336 14.997 5.75 14.997H7.25C7.664 14.997 8 15.333 8 15.747V17.247C8 17.6618 7.664 17.997 7.25 17.997ZM11.75 14.997H13.25C13.664 14.997 14 15.333 14 15.747V17.247C14 17.6614 13.664 17.997 13.25 17.997H11.75C11.336 17.997 11 17.6614 11 17.247V15.747C11 15.3334 11.336 14.997 11.75 14.997ZM11.75 8.99738H13.25C13.664 8.99738 14 9.33338 14 9.74738V11.2474C14 11.6614 13.664 11.9974 13.25 11.9974H11.75C11.336 11.9974 11 11.6614 11 11.2474V9.74738C11 9.33301 11.336 8.99738 11.75 8.99738ZM17.75 8.99738H19.25C19.664 8.99738 20 9.33338 20 9.74738V11.2474C20 11.6614 19.664 11.9974 19.25 11.9974H17.75C17.336 11.9974 17 11.6614 17 11.2474V9.74738C17 9.33301 17.336 8.99738 17.75 8.99738ZM17.75 14.997H19.25C19.664 14.997 20 15.333 20 15.747V17.247C20 17.6614 19.664 17.997 19.25 17.997H17.75C17.336 17.997 17 17.6614 17 17.247V15.747C17 15.3334 17.336 14.997 17.75 14.997Z" fill="#A7A7A7"/>
</svg>
