<svg width="49" height="47" viewBox="0 0 49 47" fill="none" xmlns="http://www.w3.org/2000/svg">
<rect x="0.428574" width="48" height="47" rx="23.5" fill="#0560FA"/>
<path d="M14.4286 18.5C14.4286 17.837 14.692 17.2011 15.1608 16.7322C15.6296 16.2634 16.2655 16 16.9286 16H31.9286C32.5916 16 33.2275 16.2634 33.6963 16.7322C34.1652 17.2011 34.4286 17.837 34.4286 18.5V24.75H14.4286V18.5ZM28.8036 19.75C28.6378 19.75 28.4788 19.8158 28.3616 19.9331C28.2444 20.0503 28.1786 20.2092 28.1786 20.375V21.625C28.1786 21.7908 28.2444 21.9497 28.3616 22.0669C28.4788 22.1842 28.6378 22.25 28.8036 22.25H31.3036C31.4693 22.25 31.6283 22.1842 31.7455 22.0669C31.8627 21.9497 31.9286 21.7908 31.9286 21.625V20.375C31.9286 20.2092 31.8627 20.0503 31.7455 19.9331C31.6283 19.8158 31.4693 19.75 31.3036 19.75H28.8036ZM14.4286 27.25V28.5C14.4286 29.163 14.692 29.7989 15.1608 30.2678C15.6296 30.7366 16.2655 31 16.9286 31H31.9286C32.5916 31 33.2275 30.7366 33.6963 30.2678C34.1652 29.7989 34.4286 29.163 34.4286 28.5V27.25H14.4286Z" fill="white"/>
</svg>
