<svg width="24" height="25" viewBox="0 0 24 25" fill="none" xmlns="http://www.w3.org/2000/svg">
<path d="M12.02 3.40997C8.70997 3.40997 6.01997 6.09997 6.01997 9.40997V12.3C6.01997 12.91 5.75997 13.84 5.44997 14.36L4.29997 16.27C3.58997 17.45 4.07997 18.76 5.37997 19.2C9.68997 20.64 14.34 20.64 18.65 19.2C19.86 18.8 20.39 17.37 19.73 16.27L18.58 14.36C18.28 13.84 18.02 12.91 18.02 12.3V9.40997C18.02 6.10997 15.32 3.40997 12.02 3.40997Z" stroke="white" stroke-width="1.5" stroke-miterlimit="10" stroke-linecap="round"/>
<path d="M13.87 3.7C13.56 3.61 13.24 3.54 12.91 3.5C11.95 3.38 11.03 3.45 10.17 3.7C10.46 2.96 11.18 2.44 12.02 2.44C12.86 2.44 13.58 2.96 13.87 3.7Z" stroke="white" stroke-width="1.5" stroke-miterlimit="10" stroke-linecap="round" stroke-linejoin="round"/>
<path d="M15.02 19.56C15.02 21.21 13.67 22.56 12.02 22.56C11.2 22.56 10.44 22.22 9.90002 21.68C9.36002 21.14 9.02002 20.38 9.02002 19.56" stroke="white" stroke-width="1.5" stroke-miterlimit="10"/>
</svg>
