<svg width="22" height="22" viewBox="0 0 22 22" fill="none" xmlns="http://www.w3.org/2000/svg">
<path d="M11.9167 8.25H6.41669" stroke="#292D32" stroke-width="1.375" stroke-linecap="round" stroke-linejoin="round"/>
<path d="M20.1666 10.0558V11.9442C20.1666 12.4483 19.7633 12.8608 19.2499 12.8791H17.4532C16.4632 12.8791 15.5558 12.155 15.4733 11.165C15.4183 10.5875 15.6382 10.0466 16.0232 9.6708C16.3624 9.32246 16.8299 9.12082 17.3432 9.12082H19.2499C19.7633 9.13915 20.1666 9.55161 20.1666 10.0558Z" stroke="#292D32" stroke-width="1.375" stroke-linecap="round" stroke-linejoin="round"/>
<path d="M16.0233 9.6709C15.6383 10.0467 15.4183 10.5876 15.4733 11.1651C15.5558 12.1551 16.4633 12.8792 17.4533 12.8792H19.25V14.2084C19.25 16.9584 17.4166 18.7917 14.6666 18.7917H6.41665C3.66665 18.7917 1.83331 16.9584 1.83331 14.2084V7.79175C1.83331 5.29841 3.33665 3.55674 5.67415 3.26341C5.91248 3.22674 6.15998 3.20841 6.41665 3.20841H14.6666C14.905 3.20841 15.1341 3.21757 15.3541 3.25423C17.7191 3.52923 19.25 5.28008 19.25 7.79175V9.12092H17.3433C16.83 9.12092 16.3625 9.32257 16.0233 9.6709Z" stroke="#292D32" stroke-width="1.375" stroke-linecap="round" stroke-linejoin="round"/>
</svg>
